<svg xmlns="http://www.w3.org/2000/svg" viewBox="0 0 512 512" fill="none">
  <rect width="512" height="512" rx="100" fill="url(#gradient)"/>
  <defs>
    <linearGradient id="gradient" x1="0%" y1="0%" x2="100%" y2="100%">
      <stop offset="0%" style="stop-color:#7c3aed;stop-opacity:1" />
      <stop offset="100%" style="stop-color:#c026d3;stop-opacity:1" />
    </linearGradient>
  </defs>
  
  <g transform="translate(100, 80)">
    <path d="M 120 60 L 140 60 L 140 120 L 200 250 C 210 270 210 290 200 310 L 60 310 C 50 290 50 270 60 250 L 120 120 Z" 
          fill="white" opacity="0.95" stroke="white" stroke-width="4"/>
    <rect x="110" y="40" width="40" height="25" fill="white" opacity="0.95"/>
    <ellipse cx="130" cy="40" rx="20" ry="5" fill="white" opacity="0.95"/>
    <circle cx="100" cy="220" r="12" fill="#c026d3" opacity="0.7"/>
    <circle cx="130" cy="180" r="8" fill="#7c3aed" opacity="0.6"/>
    <circle cx="160" cy="240" r="10" fill="#c026d3" opacity="0.8"/>
    <circle cx="145" cy="270" r="7" fill="#7c3aed" opacity="0.7"/>
    <path d="M 70 260 Q 130 250 190 260 L 190 300 L 70 300 Z" 
          fill="url(#liquidGradient)" opacity="0.4"/>
  </g>
  
  <g opacity="0.9">
    <path d="M 380 140 L 390 150 L 380 160 L 370 150 Z" fill="white"/>
    <path d="M 380 145 L 385 150 L 380 155 L 375 150 Z" fill="white"/>
    <path d="M 420 200 L 428 208 L 420 216 L 412 208 Z" fill="white"/>
    <path d="M 100 380 L 110 390 L 100 400 L 90 390 Z" fill="white"/>
  </g>
  
  <defs>
    <linearGradient id="liquidGradient" x1="0%" y1="0%" x2="0%" y2="100%">
      <stop offset="0%" style="stop-color:#c026d3;stop-opacity:0.8" />
      <stop offset="100%" style="stop-color:#7c3aed;stop-opacity:0.9" />
    </linearGradient>
  </defs>
</svg>
